<svg xmlns="http://www.w3.org/2000/svg" xml:space="preserve" width="256" height="256"><g style="stroke:none;stroke-width:0;stroke-dasharray:none;stroke-linecap:butt;stroke-linejoin:miter;stroke-miterlimit:10;fill:none;fill-rule:nonzero;opacity:1" transform="translate(1.407 1.407)scale(2.81)"><path d="M16.569 24.711a3 3 0 0 1-2.927-2.357l-.554-2.522c-.724-3.296-3.698-5.689-7.072-5.689H3a3 3 0 1 1 0-6h3.016c6.171 0 11.61 4.375 12.933 10.402l.554 2.521a3 3 0 0 1-2.934 3.645M64.526 73.691c-.005-.136-.021-.27-.021-.407 0-2.07.633-3.995 1.715-5.593H42.755a9.94 9.94 0 0 1 1.714 5.593c0 .137-.015.271-.021.407zM24.469 73.284c0-2.081.64-4.015 1.733-5.617a2.75 2.75 0 0 1-2.519-2.734 2.76 2.76 0 0 1 2.758-2.758 3 3 0 1 0 0-6c-4.83 0-8.758 3.929-8.758 8.758 0 4.154 2.909 7.634 6.796 8.528-.002-.059-.01-.117-.01-.177" style="stroke:none;stroke-width:1;stroke-dasharray:none;stroke-linecap:butt;stroke-linejoin:miter;stroke-miterlimit:10;fill:#f95e3a;fill-rule:nonzero;opacity:1"/><path d="M76.675 62.176H24.794a3 3 0 0 1-2.93-2.356l-8.222-37.465a3 3 0 0 1 2.93-3.643H87a3 3 0 0 1 2.982 3.328l-3.434 31.287a9.92 9.92 0 0 1-9.873 8.849m-49.468-6h49.468c2.01 0 3.69-1.507 3.909-3.505l3.068-27.96h-63.35z" style="stroke:none;stroke-width:1;stroke-dasharray:none;stroke-linecap:butt;stroke-linejoin:miter;stroke-miterlimit:10;fill:#f95e3a;fill-rule:nonzero;opacity:1"/><path d="M53.842 62.176a3 3 0 0 1-3-3V21.711a3 3 0 1 1 6 0v37.465a3 3 0 0 1-3 3M68.233 62.176q-.123 0-.249-.01a3 3 0 0 1-2.744-3.236l3.083-37.465a2.99 2.99 0 0 1 3.236-2.744 3 3 0 0 1 2.744 3.236L71.22 59.422a3 3 0 0 1-2.987 2.754M39.448 62.176a3 3 0 0 1-2.978-2.673l-4.111-37.465a3 3 0 1 1 5.964-.654l4.111 37.465a3 3 0 0 1-2.986 3.327" style="stroke:none;stroke-width:1;stroke-dasharray:none;stroke-linecap:butt;stroke-linejoin:miter;stroke-miterlimit:10;fill:#f95e3a;fill-rule:nonzero;opacity:1"/><path d="M84.944 43.443H20.683a3 3 0 1 1 0-6h64.262a3 3 0 1 1-.001 6" style="stroke:none;stroke-width:1;stroke-dasharray:none;stroke-linecap:butt;stroke-linejoin:miter;stroke-miterlimit:10;fill:#f95e3a;fill-rule:nonzero;opacity:1"/><circle cx="34.47" cy="73.28" r="7" style="stroke:none;stroke-width:1;stroke-dasharray:none;stroke-linecap:butt;stroke-linejoin:miter;stroke-miterlimit:10;fill:#d34633;fill-rule:nonzero;opacity:1"/><circle cx="74.5" cy="73.28" r="7" style="stroke:none;stroke-width:1;stroke-dasharray:none;stroke-linecap:butt;stroke-linejoin:miter;stroke-miterlimit:10;fill:#d34633;fill-rule:nonzero;opacity:1"/></g></svg>