<svg xmlns="http://www.w3.org/2000/svg" xml:space="preserve" viewBox="0 0 1200 1200"><path fill="#DF95EF" d="M405.582 823.695 240.493 988.784c-15.829 15.829 8.729 40.402 24.566 24.565L430.148 848.26c15.829-15.829-8.729-40.402-24.566-24.565"/><path fill="#DF95EF" d="M252.777 1018.436h720.387c22.354 0 22.391-34.741 0-34.741H252.777c-22.355.001-22.392 34.741 0 34.741"/><path fill="#FF5C70" d="m205.713 292.56 196.065 559.05h560.105L1150 292.56zm872.325 115.827H892.256v-84.559h214.236zm-79.527 236.342c-1.937-.766-4.136-1.216-6.629-1.216h-99.625V443.128h174.092zm-636.563-1.163-70.297-200.439h166.133v200.385h-94.749c-.374.001-.726.035-1.087.054m130.577-200.439h155.376v200.385H492.525zm155.376-34.74H492.525v-84.559h155.376zm34.74-84.56h174.874v84.559H682.641zm-34.74 354.427v142.09H492.525v-142.09zm34.74 0h174.874v142.09H682.641zm0-34.741V443.128h174.874v200.385zM457.784 323.827v84.559H279.467l-29.656-84.559zm-83.671 354.427h83.671v142.09h-33.838zm565.304 142.09h-47.161v-142.09h94.973z"/><path fill="#FF5C70" d="m151.497 153.367 37.332-14.423L257.34 316.27l-37.331 14.423z"/><path fill="#B162C4" d="m69.89 243.264-19.894-56.926 140.721-49.178 19.894 56.926z"/><circle cx="494.156" cy="1020.729" r="83.795" fill="#A72BBC"/><circle cx="842.26" cy="1020.729" r="83.795" fill="#A72BBC"/><path d="M666.024 1018.436v-34.741h-96.698c-13.672-27.7-42.19-46.761-75.17-46.761s-61.497 19.061-75.17 46.761H294.713L426.799 851.61h239.226V292.56H248.178l-37.989-98.325.428-.15-19.894-56.927-140.722 49.178 19.893 56.927 102.495-35.817 37.657 97.468 185.473 528.845L241.378 987.9c-.093.087-.179.181-.27.27l-.612.612c-5.945 5.945-6.192 13.122-3.346 18.93 2.11 5.853 7.151 10.504 15.12 10.699.062.005.124.005.186.009.109.002.211.016.322.016h.354c.34.008.68.015 1.021 0h156.268c-.02.764-.058 1.524-.058 2.293 0 46.279 37.516 83.795 83.795 83.795s83.795-37.516 83.795-83.795c0-.769-.037-1.529-.059-2.293zM492.525 323.827h155.376v84.559H492.525zm0 119.301h155.376v200.385H492.525zm0 235.126h155.376v142.09H492.525zM249.811 323.827h207.974v84.559H279.468zm112.137 319.739L291.65 443.127h166.134v200.385h-94.749c-.374.001-.725.035-1.087.054m12.165 34.688h83.672v142.09h-33.279c-.216-.106-.441-.192-.661-.289z" opacity=".15"/><path fill="#FFF" d="M403.963 188.914h-50.418v-54.085h-12.834v54.085h-50.418v12.834h50.418v54.085h12.834v-54.085h50.418zM453.382 261.78h-30.127v-32.318h-7.669v32.318h-30.127v7.669h30.127v32.318h7.669v-32.318h30.127zM487.039 120.6h-23.421V95.476h-5.962V120.6h-23.421v5.962h23.421v25.124h5.962v-25.124h23.421z"/></svg>